<?xml version="1.0" encoding="UTF-8" standalone="no"?>
<!-- Created with Inkscape (http://www.inkscape.org/) -->

<svg
   xmlns:dc="http://purl.org/dc/elements/1.1/"
   xmlns:cc="http://creativecommons.org/ns#"
   xmlns:rdf="http://www.w3.org/1999/02/22-rdf-syntax-ns#"
   xmlns:svg="http://www.w3.org/2000/svg"
   xmlns="http://www.w3.org/2000/svg"
   xmlns:sodipodi="http://sodipodi.sourceforge.net/DTD/sodipodi-0.dtd"
   xmlns:inkscape="http://www.inkscape.org/namespaces/inkscape"
   sodipodi:docname="logo_arrangement.svg"
   inkscape:version="0.92.1 r15371"
   id="svg8"
   version="1.1"
   viewBox="0 0 243.2557 103.4576"
   height="391.02087"
   width="919.3916"
   inkscape:export-filename="C:\Users\eric\io\prj\rmst\code\golden-twothousand20ies\images\logo_wip.png"
   inkscape:export-xdpi="62.650002"
   inkscape:export-ydpi="62.650002">
  <defs
     id="defs2" />
  <sodipodi:namedview
     fit-margin-bottom="20"
     fit-margin-right="20"
     fit-margin-left="20"
     fit-margin-top="20"
     units="px"
     inkscape:snap-global="false"
     inkscape:guide-bbox="true"
     showguides="true"
     inkscape:window-maximized="1"
     inkscape:window-y="-14"
     inkscape:window-x="-14"
     inkscape:window-height="1749"
     inkscape:window-width="3200"
     showgrid="false"
     inkscape:current-layer="layer1"
     inkscape:document-units="mm"
     inkscape:cy="196.19936"
     inkscape:cx="476.10778"
     inkscape:zoom="1.4"
     inkscape:pageshadow="2"
     inkscape:pageopacity="0"
     borderopacity="1.0"
     bordercolor="#666666"
     pagecolor="#000000"
     id="base">
    <sodipodi:guide
       position="59.505888,70.074085"
       orientation="0,1"
       id="guide4766"
       inkscape:locked="false" />
    <sodipodi:guide
       position="60.309087,93.366863"
       orientation="0,1"
       id="guide4768"
       inkscape:locked="false" />
    <sodipodi:guide
       position="59.316899,78.011585"
       orientation="0,1"
       id="guide4770"
       inkscape:locked="false" />
    <sodipodi:guide
       position="108.31207,64.168205"
       orientation="0,1"
       id="guide4510"
       inkscape:locked="false" />
    <sodipodi:guide
       position="108.87903,40.922675"
       orientation="0,1"
       id="guide4512"
       inkscape:locked="false" />
    <sodipodi:guide
       position="112.75329,49.049164"
       orientation="0,1"
       id="guide4514"
       inkscape:locked="false" />
  </sodipodi:namedview>
  <metadata
     id="metadata5">
    <rdf:RDF>
      <cc:Work
         rdf:about="">
        <dc:format>image/svg+xml</dc:format>
        <dc:type
           rdf:resource="http://purl.org/dc/dcmitype/StillImage" />
        <dc:title></dc:title>
      </cc:Work>
    </rdf:RDF>
  </metadata>
  <g
     inkscape:label="Layer 1"
     inkscape:groupmode="layer"
     id="layer1"
     transform="translate(-33.145529,-127.97028)">
    <g
       id="g4688"
       transform="matrix(1.0523662,0,0,0.99957289,14.591136,0.87761843)"
       style="stroke:#000000;stroke-opacity:1;stroke-width:5.15943089;stroke-miterlimit:4;stroke-dasharray:none;paint-order:markers stroke fill;fill:#ffffff;fill-opacity:1;stroke-linecap:square">
      <path
         id="path4526"
         transform="matrix(0.26458333,0,0,0.26458333,30.489287,125.00371)"
         d="m 341.68164,288.75781 v 15 h 7.5 55.1582 v 61.18946 7.5 h 15 v -7.5 -61.18946 h 27.82813 7.5 v -15 h -7.5 -97.98633 z"
         style="color:#000000;font-style:normal;font-variant:normal;font-weight:normal;font-stretch:normal;font-size:medium;line-height:normal;font-family:sans-serif;font-variant-ligatures:normal;font-variant-position:normal;font-variant-caps:normal;font-variant-numeric:normal;font-variant-alternates:normal;font-feature-settings:normal;text-indent:0;text-align:start;text-decoration:none;text-decoration-line:none;text-decoration-style:solid;text-decoration-color:#000000;letter-spacing:normal;word-spacing:normal;text-transform:none;writing-mode:lr-tb;direction:ltr;text-orientation:mixed;dominant-baseline:auto;baseline-shift:baseline;text-anchor:start;white-space:normal;shape-padding:0;clip-rule:nonzero;display:inline;overflow:visible;visibility:visible;opacity:1;isolation:auto;mix-blend-mode:normal;color-interpolation:sRGB;color-interpolation-filters:linearRGB;solid-color:#000000;solid-opacity:1;vector-effect:none;fill:#ffffff;fill-opacity:1;fill-rule:nonzero;stroke:#000000;stroke-width:19.50021148;stroke-linecap:square;stroke-linejoin:miter;stroke-miterlimit:4;stroke-dasharray:none;stroke-dashoffset:0;stroke-opacity:1;paint-order:markers stroke fill;color-rendering:auto;image-rendering:auto;shape-rendering:auto;text-rendering:auto;enable-background:accumulate"
         inkscape:connector-curvature="0" />
      <path
         inkscape:connector-curvature="0"
         id="path4530"
         d="m 153.52734,201.18945 -0.0332,1.98438 -0.32617,19.35742 -0.0332,1.98437 3.96875,0.0664 0.0332,-1.98437 0.32422,-19.35743 0.0332,-1.98437 z"
         style="color:#000000;font-style:normal;font-variant:normal;font-weight:normal;font-stretch:normal;font-size:medium;line-height:normal;font-family:sans-serif;font-variant-ligatures:normal;font-variant-position:normal;font-variant-caps:normal;font-variant-numeric:normal;font-variant-alternates:normal;font-feature-settings:normal;text-indent:0;text-align:start;text-decoration:none;text-decoration-line:none;text-decoration-style:solid;text-decoration-color:#000000;letter-spacing:normal;word-spacing:normal;text-transform:none;writing-mode:lr-tb;direction:ltr;text-orientation:mixed;dominant-baseline:auto;baseline-shift:baseline;text-anchor:start;white-space:normal;shape-padding:0;clip-rule:nonzero;display:inline;overflow:visible;visibility:visible;opacity:1;isolation:auto;mix-blend-mode:normal;color-interpolation:sRGB;color-interpolation-filters:linearRGB;solid-color:#000000;solid-opacity:1;vector-effect:none;fill:#ffffff;fill-opacity:1;fill-rule:nonzero;stroke:#000000;stroke-width:5.15943089;stroke-linecap:square;stroke-linejoin:miter;stroke-miterlimit:4;stroke-dasharray:none;stroke-dashoffset:0;stroke-opacity:1;paint-order:markers stroke fill;color-rendering:auto;image-rendering:auto;shape-rendering:auto;text-rendering:auto;enable-background:accumulate" />
      <path
         id="path4544"
         transform="matrix(0.26458333,0,0,0.26458333,30.489287,125.00371)"
         d="m 567.75195,285.51758 c -3.45777,24.45309 -17.97803,45.00138 -33.38086,65.77344 l -23.3125,-14.34375 -3.52734,-2.17383 v -40.61133 -7.5 h -15 v 7.5 74.58594 7.5 h 15 v -7.5 -16.36328 l 30.88477,19.00585 4.09765,-5.50585 c 8.36274,-11.21787 17.18184,-22.84357 24.50781,-35.53711 l -0.56836,38.28906 -0.11132,7.5 15,0.22266 0.11132,-7.5 1.22461,-82.1836 z"
         style="color:#000000;font-style:normal;font-variant:normal;font-weight:normal;font-stretch:normal;font-size:medium;line-height:normal;font-family:sans-serif;font-variant-ligatures:normal;font-variant-position:normal;font-variant-caps:normal;font-variant-numeric:normal;font-variant-alternates:normal;font-feature-settings:normal;text-indent:0;text-align:start;text-decoration:none;text-decoration-line:none;text-decoration-style:solid;text-decoration-color:#000000;letter-spacing:normal;word-spacing:normal;text-transform:none;writing-mode:lr-tb;direction:ltr;text-orientation:mixed;dominant-baseline:auto;baseline-shift:baseline;text-anchor:start;white-space:normal;shape-padding:0;clip-rule:nonzero;display:inline;overflow:visible;visibility:visible;opacity:1;isolation:auto;mix-blend-mode:normal;color-interpolation:sRGB;color-interpolation-filters:linearRGB;solid-color:#000000;solid-opacity:1;vector-effect:none;fill:#ffffff;fill-opacity:1;fill-rule:nonzero;stroke:#000000;stroke-width:19.50021148;stroke-linecap:square;stroke-linejoin:miter;stroke-miterlimit:4;stroke-dasharray:none;stroke-dashoffset:0;stroke-opacity:1;paint-order:markers stroke fill;color-rendering:auto;image-rendering:auto;shape-rendering:auto;text-rendering:auto;enable-background:accumulate"
         inkscape:connector-curvature="0" />
      <path
         id="path4554"
         transform="matrix(0.26458333,0,0,0.26458333,30.489287,125.00371)"
         d="m 592.76953,287.55469 -1.72851,61.45508 2.23828,2.28125 c 0,0 0.93682,0.93812 2.68554,2.42187 l 0.13282,0.86914 0.77539,-0.11719 c 7.87151,6.46614 28.4742,20.73337 58.38476,21.92383 l 7.49219,0.29492 0.59766,-14.99218 -7.5,-0.29493 c -17.16243,-0.68309 -29.88095,-5.82027 -38.20704,-10.63671 8.47818,-1.87384 15.52979,-3.65142 27.6504,-4.37891 l 7.49218,-0.44922 -0.90039,-14.97852 -7.48437,0.44922 c -17.39146,1.04387 -25.46066,4.01322 -38.02735,6.34961 l 0.97657,-35.02734 53.93359,0.63477 7.5,0.082 0.17578,-15 -7.5,-0.082 z"
         style="color:#000000;font-style:normal;font-variant:normal;font-weight:normal;font-stretch:normal;font-size:medium;line-height:normal;font-family:sans-serif;font-variant-ligatures:normal;font-variant-position:normal;font-variant-caps:normal;font-variant-numeric:normal;font-variant-alternates:normal;font-feature-settings:normal;text-indent:0;text-align:start;text-decoration:none;text-decoration-line:none;text-decoration-style:solid;text-decoration-color:#000000;letter-spacing:normal;word-spacing:normal;text-transform:none;writing-mode:lr-tb;direction:ltr;text-orientation:mixed;dominant-baseline:auto;baseline-shift:baseline;text-anchor:start;white-space:normal;shape-padding:0;clip-rule:nonzero;display:inline;overflow:visible;visibility:visible;opacity:1;isolation:auto;mix-blend-mode:normal;color-interpolation:sRGB;color-interpolation-filters:linearRGB;solid-color:#000000;solid-opacity:1;vector-effect:none;fill:#ffffff;fill-opacity:1;fill-rule:nonzero;stroke:#000000;stroke-width:19.50021148;stroke-linecap:square;stroke-linejoin:miter;stroke-miterlimit:4;stroke-dasharray:none;stroke-dashoffset:0;stroke-opacity:1;paint-order:markers stroke fill;color-rendering:auto;image-rendering:auto;shape-rendering:auto;text-rendering:auto;enable-background:accumulate"
         inkscape:connector-curvature="0" />
    </g>
    <g
       id="g4675"
       transform="matrix(1.0523662,0,0,0.99957289,0.96039012,-0.19145964)"
       style="stroke:#000000;stroke-width:5.15943098;stroke-miterlimit:4;stroke-dasharray:none;stroke-opacity:1;paint-order:markers stroke fill;fill:#ffffff;fill-opacity:1;stroke-linecap:square">
      <path
         id="path4772"
         transform="matrix(0.26458333,0,0,0.26458333,30.489287,125.00371)"
         d="m 208.66016,40.320312 -1.72657,61.455078 2.23633,2.28125 c 0,0 0.93796,0.93762 2.6875,2.42188 l 0.13281,0.86914 0.77344,-0.11914 c 7.86963,6.46418 28.4666,20.72748 58.37695,21.91796 l 7.5,0.30274 0.59766,-14.99219 -7.5,-0.29492 c -17.16839,-0.68331 -29.88893,-5.82273 -38.21484,-10.64063 8.48174,-1.8723 15.53388,-3.647279 27.6582,-4.374996 l 7.49414,-0.449218 -0.90234,-14.978516 -7.48438,0.451172 c -17.39129,1.043857 -25.45888,4.011277 -38.02539,6.347656 l 0.97656,-35.027344 53.93165,0.626954 7.5,0.08984 0.16992,-15 -7.5,-0.08984 z"
         style="color:#000000;font-style:normal;font-variant:normal;font-weight:normal;font-stretch:normal;font-size:medium;line-height:normal;font-family:sans-serif;font-variant-ligatures:normal;font-variant-position:normal;font-variant-caps:normal;font-variant-numeric:normal;font-variant-alternates:normal;font-feature-settings:normal;text-indent:0;text-align:start;text-decoration:none;text-decoration-line:none;text-decoration-style:solid;text-decoration-color:#000000;letter-spacing:normal;word-spacing:normal;text-transform:none;writing-mode:lr-tb;direction:ltr;text-orientation:mixed;dominant-baseline:auto;baseline-shift:baseline;text-anchor:start;white-space:normal;shape-padding:0;clip-rule:nonzero;display:inline;overflow:visible;visibility:visible;opacity:1;isolation:auto;mix-blend-mode:normal;color-interpolation:sRGB;color-interpolation-filters:linearRGB;solid-color:#000000;solid-opacity:1;vector-effect:none;fill:#ffffff;fill-opacity:1;fill-rule:nonzero;stroke:#000000;stroke-width:19.50021172;stroke-linecap:square;stroke-linejoin:miter;stroke-miterlimit:4;stroke-dasharray:none;stroke-dashoffset:0;stroke-opacity:1;paint-order:markers stroke fill;color-rendering:auto;image-rendering:auto;shape-rendering:auto;text-rendering:auto;enable-background:accumulate"
         inkscape:connector-curvature="0" />
      <path
         inkscape:connector-curvature="0"
         id="path4776"
         d="m 108.36719,135.74414 -0.0332,1.98438 -0.32421,19.35742 -0.0332,1.98437 3.96875,0.0664 0.0332,-1.98438 0.32421,-19.35742 0.0332,-1.98437 z"
         style="color:#000000;font-style:normal;font-variant:normal;font-weight:normal;font-stretch:normal;font-size:medium;line-height:normal;font-family:sans-serif;font-variant-ligatures:normal;font-variant-position:normal;font-variant-caps:normal;font-variant-numeric:normal;font-variant-alternates:normal;font-feature-settings:normal;text-indent:0;text-align:start;text-decoration:none;text-decoration-line:none;text-decoration-style:solid;text-decoration-color:#000000;letter-spacing:normal;word-spacing:normal;text-transform:none;writing-mode:lr-tb;direction:ltr;text-orientation:mixed;dominant-baseline:auto;baseline-shift:baseline;text-anchor:start;white-space:normal;shape-padding:0;clip-rule:nonzero;display:inline;overflow:visible;visibility:visible;opacity:1;isolation:auto;mix-blend-mode:normal;color-interpolation:sRGB;color-interpolation-filters:linearRGB;solid-color:#000000;solid-opacity:1;vector-effect:none;fill:#ffffff;fill-opacity:1;fill-rule:nonzero;stroke:#000000;stroke-width:5.15943098;stroke-linecap:square;stroke-linejoin:miter;stroke-miterlimit:4;stroke-dasharray:none;stroke-dashoffset:0;stroke-opacity:1;paint-order:markers stroke fill;color-rendering:auto;image-rendering:auto;shape-rendering:auto;text-rendering:auto;enable-background:accumulate" />
      <path
         id="path4778"
         transform="matrix(0.26458333,0,0,0.26458333,30.489287,125.00371)"
         d="m 314.85547,39.900391 v 7.5 74.386719 7.5 h 15 v -7.5 -11.67383 c 23.17573,17.89517 52.13867,19.16602 52.13867,19.16602 l 7.91992,0.46484 0.22852,-80.890624 0.0234,-7.5 -15,-0.04297 -0.0234,7.5 -0.1836,63.925784 c -9.0023,-1.35428 -26.91812,-4.92459 -41.39843,-19.265628 l -3.70508,-3.671875 v -42.398437 -7.5 z"
         style="color:#000000;font-style:normal;font-variant:normal;font-weight:normal;font-stretch:normal;font-size:medium;line-height:normal;font-family:sans-serif;font-variant-ligatures:normal;font-variant-position:normal;font-variant-caps:normal;font-variant-numeric:normal;font-variant-alternates:normal;font-feature-settings:normal;text-indent:0;text-align:start;text-decoration:none;text-decoration-line:none;text-decoration-style:solid;text-decoration-color:#000000;letter-spacing:normal;word-spacing:normal;text-transform:none;writing-mode:lr-tb;direction:ltr;text-orientation:mixed;dominant-baseline:auto;baseline-shift:baseline;text-anchor:start;white-space:normal;shape-padding:0;clip-rule:nonzero;display:inline;overflow:visible;visibility:visible;opacity:1;isolation:auto;mix-blend-mode:normal;color-interpolation:sRGB;color-interpolation-filters:linearRGB;solid-color:#000000;solid-opacity:1;vector-effect:none;fill:#ffffff;fill-opacity:1;fill-rule:nonzero;stroke:#000000;stroke-width:19.50021172;stroke-linecap:square;stroke-linejoin:miter;stroke-miterlimit:4;stroke-dasharray:none;stroke-dashoffset:0;stroke-opacity:1;paint-order:markers stroke fill;color-rendering:auto;image-rendering:auto;shape-rendering:auto;text-rendering:auto;enable-background:accumulate"
         inkscape:connector-curvature="0" />
      <path
         id="path4782"
         transform="matrix(0.26458333,0,0,0.26458333,30.489287,125.00371)"
         d="m 507.61133,30.753906 c -4.19966,29.687585 -21.68237,54.461448 -40.19336,79.363284 l -28.78906,-17.703128 -4.81446,-2.96289 v -48.6875 -7.5 h -15 v 7.5 88.037108 7.5 h 15 v -7.5 -21.74023 l 37.47071,23.05273 4.10546,-5.49805 c 11.02009,-14.77644 22.37831,-30.246127 31.46876,-47.17773 l -0.76172,51.25195 -0.11719,7.5 15,0.22071 0.11133,-7.5 1.44726,-96.990238 z"
         style="color:#000000;font-style:normal;font-variant:normal;font-weight:normal;font-stretch:normal;font-size:medium;line-height:normal;font-family:sans-serif;font-variant-ligatures:normal;font-variant-position:normal;font-variant-caps:normal;font-variant-numeric:normal;font-variant-alternates:normal;font-feature-settings:normal;text-indent:0;text-align:start;text-decoration:none;text-decoration-line:none;text-decoration-style:solid;text-decoration-color:#000000;letter-spacing:normal;word-spacing:normal;text-transform:none;writing-mode:lr-tb;direction:ltr;text-orientation:mixed;dominant-baseline:auto;baseline-shift:baseline;text-anchor:start;white-space:normal;shape-padding:0;clip-rule:nonzero;display:inline;overflow:visible;visibility:visible;opacity:1;isolation:auto;mix-blend-mode:normal;color-interpolation:sRGB;color-interpolation-filters:linearRGB;solid-color:#000000;solid-opacity:1;vector-effect:none;fill:#ffffff;fill-opacity:1;fill-rule:nonzero;stroke:#000000;stroke-width:19.50021172;stroke-linecap:square;stroke-linejoin:miter;stroke-miterlimit:4;stroke-dasharray:none;stroke-dashoffset:0;stroke-opacity:1;paint-order:markers stroke fill;color-rendering:auto;image-rendering:auto;shape-rendering:auto;text-rendering:auto;enable-background:accumulate"
         inkscape:connector-curvature="0" />
      <path
         id="path4786"
         transform="matrix(0.26458333,0,0,0.26458333,30.489287,125.00371)"
         d="m 579.36328,24.751953 -33.66016,66.976563 c -2.52491,-0.09827 -5.13949,-0.427735 -7.60351,-0.427735 h -7.5 v 14.999999 h 7.5 c 0.0869,0 0.1787,0.0137 0.26562,0.0137 l -4.94726,9.84766 -3.37305,6.69531 13.40625,6.74024 3.36524,-6.70313 7.83984,-15.58984 c 20.05984,2.11249 40.11494,8.11193 53.0918,19.89453 l 2.14648,1.94726 h 15.33985 l -0.70118,-8.14062 c -0.55037,-6.4052 -3.33295,-13.30708 -7.00586,-21.910157 -3.67287,-8.603112 -8.35405,-18.298418 -12.97656,-27.460937 -9.24506,-18.325002 -18.28515,-34.525391 -18.28516,-34.525391 z m 0.52539,32.363281 c 3.40883,6.258785 5.58866,10.009312 11.27149,21.273438 4.53705,8.993083 9.10735,18.486261 12.57031,26.597658 0.38857,0.91015 0.30168,1.05741 0.6582,1.9414 -12.90909,-7.512222 -27.62752,-11.915583 -42.54883,-13.916011 z"
         style="color:#000000;font-style:normal;font-variant:normal;font-weight:normal;font-stretch:normal;font-size:medium;line-height:normal;font-family:sans-serif;font-variant-ligatures:normal;font-variant-position:normal;font-variant-caps:normal;font-variant-numeric:normal;font-variant-alternates:normal;font-feature-settings:normal;text-indent:0;text-align:start;text-decoration:none;text-decoration-line:none;text-decoration-style:solid;text-decoration-color:#000000;letter-spacing:normal;word-spacing:normal;text-transform:none;writing-mode:lr-tb;direction:ltr;text-orientation:mixed;dominant-baseline:auto;baseline-shift:baseline;text-anchor:start;white-space:normal;shape-padding:0;clip-rule:nonzero;display:inline;overflow:visible;visibility:visible;opacity:1;isolation:auto;mix-blend-mode:normal;color-interpolation:sRGB;color-interpolation-filters:linearRGB;solid-color:#000000;solid-opacity:1;vector-effect:none;fill:#ffffff;fill-opacity:1;fill-rule:nonzero;stroke:#000000;stroke-width:19.50021172;stroke-linecap:square;stroke-linejoin:miter;stroke-miterlimit:4;stroke-dasharray:none;stroke-dashoffset:0;stroke-opacity:1;paint-order:markers stroke fill;color-rendering:auto;image-rendering:auto;shape-rendering:auto;text-rendering:auto;enable-background:accumulate"
         inkscape:connector-curvature="0" />
      <path
         inkscape:connector-curvature="0"
         id="path4788"
         d="m 198.59766,135.89844 -0.0332,1.98242 -0.32422,19.35742 -0.0332,1.98438 3.96875,0.0664 0.0332,-1.98437 0.32422,-19.35547 0.0332,-1.98438 z"
         style="color:#000000;font-style:normal;font-variant:normal;font-weight:normal;font-stretch:normal;font-size:medium;line-height:normal;font-family:sans-serif;font-variant-ligatures:normal;font-variant-position:normal;font-variant-caps:normal;font-variant-numeric:normal;font-variant-alternates:normal;font-feature-settings:normal;text-indent:0;text-align:start;text-decoration:none;text-decoration-line:none;text-decoration-style:solid;text-decoration-color:#000000;letter-spacing:normal;word-spacing:normal;text-transform:none;writing-mode:lr-tb;direction:ltr;text-orientation:mixed;dominant-baseline:auto;baseline-shift:baseline;text-anchor:start;white-space:normal;shape-padding:0;clip-rule:nonzero;display:inline;overflow:visible;visibility:visible;opacity:1;isolation:auto;mix-blend-mode:normal;color-interpolation:sRGB;color-interpolation-filters:linearRGB;solid-color:#000000;solid-opacity:1;vector-effect:none;fill:#ffffff;fill-opacity:1;fill-rule:nonzero;stroke:#000000;stroke-width:5.15943098;stroke-linecap:square;stroke-linejoin:miter;stroke-miterlimit:4;stroke-dasharray:none;stroke-dashoffset:0;stroke-opacity:1;paint-order:markers stroke fill;color-rendering:auto;image-rendering:auto;shape-rendering:auto;text-rendering:auto;enable-background:accumulate" />
      <path
         id="path4794"
         transform="matrix(0.26458333,0,0,0.26458333,30.489287,125.00371)"
         d="m 659.35352,39.900391 v 7.5 74.386719 7.5 h 15 v -7.5 -11.67383 c 23.17573,17.89517 52.13867,19.16602 52.13867,19.16602 l 7.91992,0.46484 0.23047,-80.890624 0.0215,-7.5 -15,-0.04297 -0.0234,7.5 -0.18359,63.925784 c -9.0023,-1.35428 -26.91816,-4.92459 -41.39844,-19.265628 l -3.70507,-3.671875 v -42.398437 -7.5 z"
         style="color:#000000;font-style:normal;font-variant:normal;font-weight:normal;font-stretch:normal;font-size:medium;line-height:normal;font-family:sans-serif;font-variant-ligatures:normal;font-variant-position:normal;font-variant-caps:normal;font-variant-numeric:normal;font-variant-alternates:normal;font-feature-settings:normal;text-indent:0;text-align:start;text-decoration:none;text-decoration-line:none;text-decoration-style:solid;text-decoration-color:#000000;letter-spacing:normal;word-spacing:normal;text-transform:none;writing-mode:lr-tb;direction:ltr;text-orientation:mixed;dominant-baseline:auto;baseline-shift:baseline;text-anchor:start;white-space:normal;shape-padding:0;clip-rule:nonzero;display:inline;overflow:visible;visibility:visible;opacity:1;isolation:auto;mix-blend-mode:normal;color-interpolation:sRGB;color-interpolation-filters:linearRGB;solid-color:#000000;solid-opacity:1;vector-effect:none;fill:#ffffff;fill-opacity:1;fill-rule:nonzero;stroke:#000000;stroke-width:19.50021172;stroke-linecap:square;stroke-linejoin:miter;stroke-miterlimit:4;stroke-dasharray:none;stroke-dashoffset:0;stroke-opacity:1;paint-order:markers stroke fill;color-rendering:auto;image-rendering:auto;shape-rendering:auto;text-rendering:auto;enable-background:accumulate"
         inkscape:connector-curvature="0" />
      <path
         id="path4762"
         transform="matrix(0.26458333,0,0,0.26458333,30.489287,125.00371)"
         d="m 185.5918,40.941406 v 7.5 60.515624 C 172.61697,102.23117 158.8907,97.926031 147.91406,95.224609 v -46.607421 -7.5 h -15 v 7.5 43.484374 C 128.91855,91.431773 126.5,91.160156 126.5,91.160156 l -7.46289,-0.730468 -1.46289,14.925782 7.46289,0.73047 c 0,0 3.04626,0.34655 7.87695,1.18164 v 13.49414 7.5 h 15 v -7.5 -10.31836 c 12.81137,3.21862 28.62554,8.54511 40.91797,17.02734 l 11.75977,8.1211 v -87.150394 -7.5 z"
         style="color:#000000;font-style:normal;font-variant:normal;font-weight:normal;font-stretch:normal;font-size:medium;line-height:normal;font-family:sans-serif;font-variant-ligatures:normal;font-variant-position:normal;font-variant-caps:normal;font-variant-numeric:normal;font-variant-alternates:normal;font-feature-settings:normal;text-indent:0;text-align:start;text-decoration:none;text-decoration-line:none;text-decoration-style:solid;text-decoration-color:#000000;letter-spacing:normal;word-spacing:normal;text-transform:none;writing-mode:lr-tb;direction:ltr;text-orientation:mixed;dominant-baseline:auto;baseline-shift:baseline;text-anchor:start;white-space:normal;shape-padding:0;clip-rule:nonzero;display:inline;overflow:visible;visibility:visible;opacity:1;isolation:auto;mix-blend-mode:normal;color-interpolation:sRGB;color-interpolation-filters:linearRGB;solid-color:#000000;solid-opacity:1;vector-effect:none;fill:#ffffff;fill-opacity:1;fill-rule:nonzero;stroke:#000000;stroke-width:19.50021172;stroke-linecap:square;stroke-linejoin:miter;stroke-miterlimit:4;stroke-dasharray:none;stroke-dashoffset:0;stroke-opacity:1;paint-order:markers stroke fill;color-rendering:auto;image-rendering:auto;shape-rendering:auto;text-rendering:auto;enable-background:accumulate"
         inkscape:connector-curvature="0" />
      <path
         id="path4758"
         transform="matrix(0.26458333,0,0,0.26458333,30.489287,125.00371)"
         d="m 78.591797,19.998047 c -17.517764,0.03672 -36.414513,8.272888 -52.826172,21.910156 l -5.763672,4.791016 9.587891,11.537109 5.765625,-4.791016 C 50.557643,40.813111 68.136411,34.268927 81.152344,35.072266 c 13.015929,0.803338 21.804156,6.77225 24.876956,24.359375 1.74083,9.96359 -1.06919,18.026452 -9.056644,23.777343 -7.655457,5.511863 -21.167555,8.797233 -41.351562,5.576172 l -0.283203,-29.470703 -0.07422,-7.5 -15,0.148438 0.07422,7.5 0.53125,55.281249 0.07422,7.5 15,-0.13867 -0.07422,-7.5 -0.0332,-3.50391 62.972649,32.11524 6.67969,3.40234 6.82031,-13.36133 -6.6875,-3.41015 -49.509759,-25.2461 c 11.964851,-0.77934 22.059914,-3.77332 29.623049,-9.218748 12.49706,-8.99777 17.6191,-23.92291 15.0664,-38.533203 C 116.82598,34.099953 100.54752,21.241581 82.076175,20.101562 80.921716,20.030312 79.759651,19.995599 78.5918,19.998047 Z"
         style="color:#000000;font-style:normal;font-variant:normal;font-weight:normal;font-stretch:normal;font-size:medium;line-height:normal;font-family:sans-serif;font-variant-ligatures:normal;font-variant-position:normal;font-variant-caps:normal;font-variant-numeric:normal;font-variant-alternates:normal;font-feature-settings:normal;text-indent:0;text-align:start;text-decoration:none;text-decoration-line:none;text-decoration-style:solid;text-decoration-color:#000000;letter-spacing:normal;word-spacing:normal;text-transform:none;writing-mode:lr-tb;direction:ltr;text-orientation:mixed;dominant-baseline:auto;baseline-shift:baseline;text-anchor:start;white-space:normal;shape-padding:0;clip-rule:nonzero;display:inline;overflow:visible;visibility:visible;opacity:1;isolation:auto;mix-blend-mode:normal;color-interpolation:sRGB;color-interpolation-filters:linearRGB;solid-color:#000000;solid-opacity:1;vector-effect:none;fill:#ffffff;fill-opacity:1;fill-rule:nonzero;stroke:#000000;stroke-width:19.50021172;stroke-linecap:square;stroke-linejoin:miter;stroke-miterlimit:4;stroke-dasharray:none;stroke-dashoffset:0;stroke-opacity:1;paint-order:markers stroke fill;color-rendering:auto;image-rendering:auto;shape-rendering:auto;text-rendering:auto;enable-background:accumulate"
         inkscape:connector-curvature="0" />
    </g>
    <g
       id="g4682"
       transform="matrix(1.1694114,0,0,1.1107463,-12.305613,-19.457979)"
       style="stroke:#000000;stroke-opacity:1;stroke-width:4.64302883;stroke-miterlimit:4;stroke-dasharray:none;paint-order:markers stroke fill;fill:#ffffff;fill-opacity:1;stroke-linecap:square">
      <path
         inkscape:connector-curvature="0"
         id="path4504"
         d="m 149.99805,162.84961 -0.0899,2.86133 -0.79882,25.33008 c -6.43093,-0.82541 -11.82381,-4.12884 -16.86719,-6.82227 l -2.34766,-1.25391 -1.42187,2.25196 c -2.00914,3.18294 -5.08955,4.90652 -7.54688,5.79101 l -0.83789,-25.12695 -0.0957,-2.85938 -5.72071,0.19141 0.0957,2.85938 1.05273,31.62304 2.96094,-0.20703 c 3.50121,-0.24526 9.02418,-2.20455 13.19726,-7.15625 5.12681,2.87403 11.61366,6.77734 20.29493,6.77735 h 2.77148 l 0.98438,-31.21876 0.0898,-2.86132 z"
         style="color:#000000;font-style:normal;font-variant:normal;font-weight:normal;font-stretch:normal;font-size:medium;line-height:normal;font-family:sans-serif;font-variant-ligatures:normal;font-variant-position:normal;font-variant-caps:normal;font-variant-numeric:normal;font-variant-alternates:normal;font-feature-settings:normal;text-indent:0;text-align:start;text-decoration:none;text-decoration-line:none;text-decoration-style:solid;text-decoration-color:#000000;letter-spacing:normal;word-spacing:normal;text-transform:none;writing-mode:lr-tb;direction:ltr;text-orientation:mixed;dominant-baseline:auto;baseline-shift:baseline;text-anchor:start;white-space:normal;shape-padding:0;clip-rule:nonzero;display:inline;overflow:visible;visibility:visible;opacity:1;isolation:auto;mix-blend-mode:normal;color-interpolation:sRGB;color-interpolation-filters:linearRGB;solid-color:#000000;solid-opacity:1;vector-effect:none;fill:#ffffff;fill-opacity:1;fill-rule:nonzero;stroke:#000000;stroke-width:4.64302883;stroke-linecap:square;stroke-linejoin:miter;stroke-miterlimit:4;stroke-dasharray:none;stroke-dashoffset:0;stroke-opacity:1;paint-order:markers stroke fill;color-rendering:auto;image-rendering:auto;shape-rendering:auto;text-rendering:auto;enable-background:accumulate" />
      <path
         inkscape:connector-curvature="0"
         id="path4516"
         d="m 158.66211,163.17578 -0.0469,2.86133 -0.46875,27.91406 -0.0469,2.86328 5.72266,0.0957 0.0469,-2.86133 0.46875,-27.91602 0.0488,-2.86133 z"
         style="color:#000000;font-style:normal;font-variant:normal;font-weight:normal;font-stretch:normal;font-size:medium;line-height:normal;font-family:sans-serif;font-variant-ligatures:normal;font-variant-position:normal;font-variant-caps:normal;font-variant-numeric:normal;font-variant-alternates:normal;font-feature-settings:normal;text-indent:0;text-align:start;text-decoration:none;text-decoration-line:none;text-decoration-style:solid;text-decoration-color:#000000;letter-spacing:normal;word-spacing:normal;text-transform:none;writing-mode:lr-tb;direction:ltr;text-orientation:mixed;dominant-baseline:auto;baseline-shift:baseline;text-anchor:start;white-space:normal;shape-padding:0;clip-rule:nonzero;display:inline;overflow:visible;visibility:visible;opacity:1;isolation:auto;mix-blend-mode:normal;color-interpolation:sRGB;color-interpolation-filters:linearRGB;solid-color:#000000;solid-opacity:1;vector-effect:none;fill:#ffffff;fill-opacity:1;fill-rule:nonzero;stroke:#000000;stroke-width:4.64302883;stroke-linecap:square;stroke-linejoin:miter;stroke-miterlimit:4;stroke-dasharray:none;stroke-dashoffset:0;stroke-opacity:1;paint-order:markers stroke fill;color-rendering:auto;image-rendering:auto;shape-rendering:auto;text-rendering:auto;enable-background:accumulate" />
      <path
         id="path4518"
         transform="matrix(0.26458333,0,0,0.26458333,30.489287,125.00371)"
         d="m 520.71484,143.26758 v 10.82226 107.27344 10.81445 h 21.62891 v -10.81445 -16.83789 c 33.4223,25.80683 75.19141,27.63867 75.19141,27.63867 l 11.42578,0.67188 0.32617,-116.65625 0.0293,-10.81446 -21.62891,-0.0586 -0.0371,10.81445 -0.25195,92.58203 c -14.78268,-2.7315 -41.03501,-9.68726 -59.71094,-28.18359 l -5.34375,-5.29101 v -61.13868 -10.82226 z"
         style="color:#000000;font-style:normal;font-variant:normal;font-weight:normal;font-stretch:normal;font-size:medium;line-height:normal;font-family:sans-serif;font-variant-ligatures:normal;font-variant-position:normal;font-variant-caps:normal;font-variant-numeric:normal;font-variant-alternates:normal;font-feature-settings:normal;text-indent:0;text-align:start;text-decoration:none;text-decoration-line:none;text-decoration-style:solid;text-decoration-color:#000000;letter-spacing:normal;word-spacing:normal;text-transform:none;writing-mode:lr-tb;direction:ltr;text-orientation:mixed;dominant-baseline:auto;baseline-shift:baseline;text-anchor:start;white-space:normal;shape-padding:0;clip-rule:nonzero;display:inline;overflow:visible;visibility:visible;opacity:1;isolation:auto;mix-blend-mode:normal;color-interpolation:sRGB;color-interpolation-filters:linearRGB;solid-color:#000000;solid-opacity:1;vector-effect:none;fill:#ffffff;fill-opacity:1;fill-rule:nonzero;stroke:#000000;stroke-width:17.54845563;stroke-linecap:square;stroke-linejoin:miter;stroke-miterlimit:4;stroke-dasharray:none;stroke-dashoffset:0;stroke-opacity:1;paint-order:markers stroke fill;color-rendering:auto;image-rendering:auto;shape-rendering:auto;text-rendering:auto;enable-background:accumulate"
         inkscape:connector-curvature="0" />
      <path
         inkscape:connector-curvature="0"
         id="path4524"
         d="m 222.16211,160.30469 c -2.02588,0.0712 -4.04491,0.33719 -6,0.80664 -3.91019,0.93889 -7.6013,2.75188 -10.38086,5.70508 -2.77956,2.95319 -4.53051,7.05902 -4.61133,11.96093 -0.11702,7.09808 2.33384,12.45356 6.19922,15.79102 3.86538,3.33746 8.84668,4.64964 13.64258,4.81836 4.7959,0.16872 9.47537,-0.77967 13.18555,-2.37891 1.85508,-0.79962 3.47422,-1.75336 4.77343,-2.97265 1.29922,-1.2193 2.4023,-2.84774 2.40235,-4.89258 l 0.0898,-4.99805 -21.67187,-0.0996 -2.86329,-0.0117 -0.0254,5.72266 2.86133,0.0137 15.3086,0.0703 c -0.017,0.0165 5e-4,0.005 -0.0176,0.0215 -0.60807,0.57066 -1.71234,1.28255 -3.12305,1.89062 -2.82141,1.21615 -6.84139,2.05242 -10.71875,1.91602 -3.87736,-0.13641 -7.54379,-1.22151 -10.10351,-3.43164 -2.55973,-2.21013 -4.31266,-5.5513 -4.2168,-11.36524 0.0602,-3.65437 1.21803,-6.17739 3.05664,-8.13086 1.83861,-1.95346 4.47621,-3.32667 7.54883,-4.06445 6.14522,-1.47556 13.88727,-0.16437 18.41211,2.80274 l 2.39257,1.56836 3.13868,-4.78516 -2.39258,-1.57031 c -4.66827,-3.06116 -10.80909,-4.60033 -16.88672,-4.38672 z"
         style="color:#000000;font-style:normal;font-variant:normal;font-weight:normal;font-stretch:normal;font-size:medium;line-height:normal;font-family:sans-serif;font-variant-ligatures:normal;font-variant-position:normal;font-variant-caps:normal;font-variant-numeric:normal;font-variant-alternates:normal;font-feature-settings:normal;text-indent:0;text-align:start;text-decoration:none;text-decoration-line:none;text-decoration-style:solid;text-decoration-color:#000000;letter-spacing:normal;word-spacing:normal;text-transform:none;writing-mode:lr-tb;direction:ltr;text-orientation:mixed;dominant-baseline:auto;baseline-shift:baseline;text-anchor:start;white-space:normal;shape-padding:0;clip-rule:nonzero;display:inline;overflow:visible;visibility:visible;opacity:1;isolation:auto;mix-blend-mode:normal;color-interpolation:sRGB;color-interpolation-filters:linearRGB;solid-color:#000000;solid-opacity:1;vector-effect:none;fill:#ffffff;fill-opacity:1;fill-rule:nonzero;stroke:#000000;stroke-width:4.64302883;stroke-linecap:square;stroke-linejoin:miter;stroke-miterlimit:4;stroke-dasharray:none;stroke-dashoffset:0;stroke-opacity:1;paint-order:markers stroke fill;color-rendering:auto;image-rendering:auto;shape-rendering:auto;text-rendering:auto;enable-background:accumulate" />
      <path
         inkscape:connector-curvature="0"
         id="path4502"
         d="m 91.710938,159.56445 c -3.701896,-0.16601 -7.165068,0.46681 -10.185547,1.76563 -6.040959,2.59764 -10.322348,7.97309 -10.833985,14.40234 -0.443932,5.57849 1.00368,11.69054 6.085938,15.09961 5.082257,3.40907 12.781946,3.56737 23.615236,-0.45703 3.02302,-1.12301 5.06828,-0.95791 6.16211,-0.5332 1.09383,0.4247 1.32966,0.95876 1.3789,1.42382 0.0493,0.46507 -0.069,1.11211 -1.17968,1.87696 -1.11072,0.76484 -3.31427,1.50063 -6.894535,1.23828 l -2.939453,-0.21484 -0.431641,5.87695 2.939453,0.2168 c 4.537006,0.33245 8.114686,-0.50219 10.669926,-2.26172 2.55523,-1.75954 3.98984,-4.59039 3.69726,-7.35352 -0.29257,-2.76312 -2.29325,-5.20692 -5.10547,-6.29883 -2.81222,-1.09191 -6.34393,-0.98342 -10.347653,0.50391 -9.926823,3.68767 -15.487877,2.95967 -18.28125,1.08594 -2.793373,-1.87374 -3.835792,-5.44116 -3.494141,-9.73438 0.329366,-4.13883 2.969405,-7.59844 7.28711,-9.45508 4.317704,-1.85663 10.303063,-1.99776 16.939454,1.16602 l 2.66015,1.26953 2.53711,-5.32226 -2.66015,-1.26758 c -3.976909,-1.89592 -7.917247,-2.86134 -11.619142,-3.02735 z"
         style="color:#000000;font-style:normal;font-variant:normal;font-weight:normal;font-stretch:normal;font-size:medium;line-height:normal;font-family:sans-serif;font-variant-ligatures:normal;font-variant-position:normal;font-variant-caps:normal;font-variant-numeric:normal;font-variant-alternates:normal;font-feature-settings:normal;text-indent:0;text-align:start;text-decoration:none;text-decoration-line:none;text-decoration-style:solid;text-decoration-color:#000000;letter-spacing:normal;word-spacing:normal;text-transform:none;writing-mode:lr-tb;direction:ltr;text-orientation:mixed;dominant-baseline:auto;baseline-shift:baseline;text-anchor:start;white-space:normal;shape-padding:0;clip-rule:nonzero;display:inline;overflow:visible;visibility:visible;opacity:1;isolation:auto;mix-blend-mode:normal;color-interpolation:sRGB;color-interpolation-filters:linearRGB;solid-color:#000000;solid-opacity:1;vector-effect:none;fill:#ffffff;fill-opacity:1;fill-rule:nonzero;stroke:#000000;stroke-width:4.64302883;stroke-linecap:square;stroke-linejoin:miter;stroke-miterlimit:4;stroke-dasharray:none;stroke-dashoffset:0;stroke-opacity:1;paint-order:markers stroke fill;color-rendering:auto;image-rendering:auto;shape-rendering:auto;text-rendering:auto;enable-background:accumulate" />
    </g>
    <g
       style="stroke:#ffffff;stroke-width:5.15943098;stroke-miterlimit:4;stroke-dasharray:none;stroke-opacity:1;paint-order:markers stroke fill"
       transform="matrix(1.0523662,0,0,0.99957289,261.03161,-80.765239)"
       id="g5029" />
    <g
       style="stroke:#ffffff;stroke-width:5.15943098;stroke-miterlimit:4;stroke-dasharray:none;stroke-opacity:1;paint-order:markers stroke fill"
       transform="matrix(1.0523662,0,0,0.99957289,247.40087,-81.834317)"
       id="g5049" />
  </g>
</svg>
